<svg xmlns="http://www.w3.org/2000/svg" viewBox="0 0 760 470" font-family="system-ui, -apple-system, sans-serif" font-size="12">
  <!-- Background -->
  <rect width="760" height="470" fill="#fafafa" rx="8"/>

  <!-- Title -->
  <text x="380" y="26" text-anchor="middle" font-size="15" font-weight="bold" fill="#1a1a2e">DiscoveryPolicy Pipeline</text>
  <text x="380" y="44" text-anchor="middle" font-size="11" fill="#666">queries → signals → ranking → discoveredImages → CachedImageSet → node pulls</text>

  <!-- Stage band labels -->
  <g text-anchor="middle" font-size="11" font-weight="bold" fill="#999">
    <text x="95" y="72">STAGE 1 · queries</text>
    <text x="300" y="72">STAGE 2 · signals</text>
    <text x="505" y="72">STAGE 3 · ranking</text>
    <text x="685" y="72">output</text>
  </g>

  <!-- Stage separators -->
  <g stroke="#e3e3ee" stroke-width="1" stroke-dasharray="4,4">
    <line x1="195" y1="84" x2="195" y2="392"/>
    <line x1="405" y1="84" x2="405" y2="392"/>
    <line x1="610" y1="84" x2="610" y2="392"/>
  </g>

  <!-- ===== Stage 1: queries (blue) ===== -->
  <g>
    <rect x="20" y="100" width="150" height="44" rx="6" fill="#4361ee" fill-opacity="0.1" stroke="#4361ee" stroke-width="1.5"/>
    <text x="95" y="120" text-anchor="middle" font-size="11" font-weight="bold" fill="#1a1a2e">prometheus</text>
    <text x="95" y="135" text-anchor="middle" font-size="9" fill="#4361ee">range / instant series</text>

    <rect x="20" y="160" width="150" height="44" rx="6" fill="#4361ee" fill-opacity="0.1" stroke="#4361ee" stroke-width="1.5"/>
    <text x="95" y="180" text-anchor="middle" font-size="11" font-weight="bold" fill="#1a1a2e">loki</text>
    <text x="95" y="195" text-anchor="middle" font-size="9" fill="#4361ee">image pull event log</text>

    <rect x="20" y="220" width="150" height="44" rx="6" fill="#4361ee" fill-opacity="0.1" stroke="#4361ee" stroke-width="1.5"/>
    <text x="95" y="240" text-anchor="middle" font-size="11" font-weight="bold" fill="#1a1a2e">registry</text>
    <text x="95" y="255" text-anchor="middle" font-size="9" fill="#4361ee">tag / catalog listing</text>
  </g>

  <!-- ===== Stage 2: signals (purple) ===== -->
  <g>
    <rect x="225" y="96" width="160" height="40" rx="6" fill="#7209b7" fill-opacity="0.1" stroke="#7209b7" stroke-width="1.5"/>
    <text x="305" y="121" text-anchor="middle" font-size="11" font-weight="bold" fill="#1a1a2e">aggregate</text>

    <rect x="225" y="146" width="160" height="40" rx="6" fill="#7209b7" fill-opacity="0.1" stroke="#7209b7" stroke-width="1.5"/>
    <text x="305" y="171" text-anchor="middle" font-size="11" font-weight="bold" fill="#1a1a2e">timeWeightedAggregate</text>

    <rect x="225" y="196" width="160" height="40" rx="6" fill="#7209b7" fill-opacity="0.1" stroke="#7209b7" stroke-width="1.5"/>
    <text x="305" y="221" text-anchor="middle" font-size="11" font-weight="bold" fill="#1a1a2e">windowAggregate</text>

    <rect x="225" y="246" width="160" height="40" rx="6" fill="#7209b7" fill-opacity="0.1" stroke="#7209b7" stroke-width="1.5"/>
    <text x="305" y="266" text-anchor="middle" font-size="11" font-weight="bold" fill="#1a1a2e">eventPullTime</text>
    <text x="305" y="279" text-anchor="middle" font-size="8" fill="#7209b7">loki only</text>
  </g>
  <text x="305" y="304" text-anchor="middle" font-size="9" fill="#999">named per-image value derived from one queryRef</text>

  <!-- ===== Stage 3: ranking (pink/red) ===== -->
  <g>
    <rect x="425" y="120" width="165" height="40" rx="6" fill="#d81159" fill-opacity="0.1" stroke="#d81159" stroke-width="1.5"/>
    <text x="507" y="138" text-anchor="middle" font-size="11" font-weight="bold" fill="#1a1a2e">signal</text>
    <text x="507" y="151" text-anchor="middle" font-size="8" fill="#d81159">one signal, direct order</text>

    <rect x="425" y="170" width="165" height="40" rx="6" fill="#d81159" fill-opacity="0.1" stroke="#d81159" stroke-width="1.5"/>
    <text x="507" y="188" text-anchor="middle" font-size="11" font-weight="bold" fill="#1a1a2e">weightedSum</text>
    <text x="507" y="201" text-anchor="middle" font-size="8" fill="#d81159">Σ wₖ · normalize(signalₖ)</text>

    <rect x="425" y="220" width="165" height="40" rx="6" fill="#d81159" fill-opacity="0.1" stroke="#d81159" stroke-width="1.5"/>
    <text x="507" y="238" text-anchor="middle" font-size="11" font-weight="bold" fill="#1a1a2e">modelExposure</text>
    <text x="507" y="251" text-anchor="middle" font-size="8" fill="#d81159">cold-node exposure model</text>
  </g>
  <text x="507" y="282" text-anchor="middle" font-size="9" fill="#999">exactly one strategy per policy</text>

  <!-- ===== Output ===== -->
  <g>
    <rect x="628" y="120" width="114" height="56" rx="6" fill="#1a1a2e" fill-opacity="0.06" stroke="#1a1a2e" stroke-width="1.5"/>
    <text x="685" y="142" text-anchor="middle" font-size="10" font-weight="bold" fill="#1a1a2e">status.</text>
    <text x="685" y="156" text-anchor="middle" font-size="10" font-weight="bold" fill="#1a1a2e">discoveredImages</text>
    <text x="685" y="170" text-anchor="middle" font-size="8" fill="#666">image · rank · finalScore</text>

    <rect x="628" y="196" width="114" height="50" rx="6" fill="#0b7a4b" fill-opacity="0.1" stroke="#0b7a4b" stroke-width="1.5"/>
    <text x="685" y="216" text-anchor="middle" font-size="10" font-weight="bold" fill="#1a1a2e">CachedImageSet</text>
    <text x="685" y="230" text-anchor="middle" font-size="8" fill="#0b7a4b">discoveryPolicyRef</text>
    <text x="685" y="240" text-anchor="middle" font-size="8" fill="#666">creates CachedImage</text>

    <rect x="628" y="266" width="114" height="44" rx="6" fill="#0b7a4b" fill-opacity="0.1" stroke="#0b7a4b" stroke-width="1.5"/>
    <text x="685" y="286" text-anchor="middle" font-size="10" font-weight="bold" fill="#1a1a2e">node pulls</text>
    <text x="685" y="299" text-anchor="middle" font-size="8" fill="#0b7a4b">paced by PullPolicy</text>
  </g>

  <!-- Arrows: queries -> signals (fan to nearest) -->
  <g stroke="#bbb" stroke-width="1.5" fill="none" marker-end="url(#arrow)">
    <path d="M170 122 C 200 122, 200 116, 223 116"/>
    <path d="M170 182 C 200 182, 200 166, 223 166"/>
    <path d="M170 182 C 200 200, 205 216, 223 216"/>
    <path d="M170 182 C 200 230, 205 262, 223 264"/>
  </g>
  <!-- Arrows: signals -> ranking -->
  <g stroke="#bbb" stroke-width="1.5" fill="none" marker-end="url(#arrow)">
    <path d="M385 116 C 408 130, 408 138, 423 140"/>
    <path d="M385 166 C 408 180, 408 188, 423 190"/>
    <path d="M385 216 C 408 220, 408 236, 423 238"/>
    <path d="M385 266 C 408 256, 410 244, 423 242"/>
  </g>
  <!-- Arrows: ranking -> output -->
  <g stroke="#bbb" stroke-width="1.5" fill="none" marker-end="url(#arrow)">
    <path d="M590 140 C 612 145, 612 145, 626 146"/>
    <path d="M590 190 C 612 175, 612 160, 626 152"/>
    <path d="M590 240 C 612 200, 612 165, 626 156"/>
  </g>
  <!-- Output chain arrows -->
  <g stroke="#0b7a4b" stroke-width="1.5" fill="none" marker-end="url(#arrowg)">
    <path d="M685 176 L 685 194"/>
    <path d="M685 246 L 685 264"/>
  </g>

  <!-- Marker defs -->
  <defs>
    <marker id="arrow" markerWidth="8" markerHeight="8" refX="6" refY="3" orient="auto">
      <path d="M0,0 L6,3 L0,6 Z" fill="#bbb"/>
    </marker>
    <marker id="arrowg" markerWidth="8" markerHeight="8" refX="6" refY="3" orient="auto">
      <path d="M0,0 L6,3 L0,6 Z" fill="#0b7a4b"/>
    </marker>
  </defs>

  <!-- Footer: status summary -->
  <rect x="20" y="338" width="722" height="40" rx="6" fill="#fff" stroke="#e3e3ee" stroke-width="1"/>
  <text x="32" y="356" font-size="10" font-weight="bold" fill="#1a1a2e">Status fields:</text>
  <text x="32" y="371" font-size="10" fill="#666">queryResults: name · type · status · message — discoveredImages: image · rank · finalScore.</text>

  <!-- Sync loop note -->
  <text x="380" y="402" text-anchor="middle" font-size="10" fill="#999">↻ re-runs every spec.syncInterval · keeps last known good results on transient query failure</text>
</svg>
