<svg xmlns="http://www.w3.org/2000/svg" viewBox="0 0 760 430" font-family="system-ui, -apple-system, sans-serif" font-size="12">
  <rect width="760" height="430" fill="#fafafa" rx="8"/>

  <text x="380" y="26" text-anchor="middle" font-size="15" font-weight="bold" fill="#1a1a2e">Which Ranking Strategy Should I Use?</text>
  <text x="380" y="44" text-anchor="middle" font-size="11" fill="#666">Pick the simplest strategy that matches your operational decision.</text>

  <rect x="250" y="66" width="260" height="50" rx="8" fill="#fff" stroke="#999" stroke-width="1.5"/>
  <text x="380" y="87" text-anchor="middle" font-size="11" font-weight="bold" fill="#1a1a2e">What are you optimizing for?</text>
  <text x="380" y="102" text-anchor="middle" font-size="9" fill="#666">Use one path below</text>

  <line x1="380" y1="116" x2="380" y2="146" stroke="#999" stroke-width="1.5"/>
  <line x1="380" y1="146" x2="120" y2="146" stroke="#999" stroke-width="1.5"/>
  <line x1="380" y1="146" x2="380" y2="146" stroke="#999" stroke-width="1.5"/>
  <line x1="380" y1="146" x2="640" y2="146" stroke="#999" stroke-width="1.5"/>

  <!-- Left path -->
  <rect x="30" y="156" width="180" height="68" rx="8" fill="#d81159" fill-opacity="0.1" stroke="#d81159" stroke-width="1.5"/>
  <text x="120" y="178" text-anchor="middle" font-size="10" font-weight="bold" fill="#1a1a2e">One dominant metric</text>
  <text x="120" y="193" text-anchor="middle" font-size="9" fill="#666">"Most used image wins"</text>
  <text x="120" y="207" text-anchor="middle" font-size="9" fill="#666">Easy to explain and tune</text>

  <line x1="120" y1="224" x2="120" y2="250" stroke="#d81159" stroke-width="1.5" marker-end="url(#arrow-red)"/>

  <rect x="30" y="256" width="180" height="92" rx="8" fill="#fff" stroke="#d81159" stroke-width="2"/>
  <text x="120" y="280" text-anchor="middle" font-size="12" font-weight="bold" fill="#d81159">strategy: signal</text>
  <text x="120" y="298" text-anchor="middle" font-size="9" fill="#666">Inputs: one signalRef</text>
  <text x="120" y="314" text-anchor="middle" font-size="9" fill="#666">Use when simplicity matters</text>
  <text x="120" y="330" text-anchor="middle" font-size="9" fill="#666">and one metric dominates</text>

  <!-- Center path -->
  <rect x="290" y="156" width="180" height="68" rx="8" fill="#7209b7" fill-opacity="0.1" stroke="#7209b7" stroke-width="1.5"/>
  <text x="380" y="178" text-anchor="middle" font-size="10" font-weight="bold" fill="#1a1a2e">Balance multiple metrics</text>
  <text x="380" y="193" text-anchor="middle" font-size="9" fill="#666">"Usage + concurrency"</text>
  <text x="380" y="207" text-anchor="middle" font-size="9" fill="#666">Need transparent weighting</text>

  <line x1="380" y1="224" x2="380" y2="250" stroke="#7209b7" stroke-width="1.5" marker-end="url(#arrow-purple)"/>

  <rect x="290" y="256" width="180" height="92" rx="8" fill="#fff" stroke="#7209b7" stroke-width="2"/>
  <text x="380" y="280" text-anchor="middle" font-size="12" font-weight="bold" fill="#7209b7">strategy: weightedSum</text>
  <text x="380" y="298" text-anchor="middle" font-size="9" fill="#666">Inputs: 2+ signals + weights</text>
  <text x="380" y="314" text-anchor="middle" font-size="9" fill="#666">Use when trade-offs are known</text>
  <text x="380" y="330" text-anchor="middle" font-size="9" fill="#666">and you want explicit control</text>

  <!-- Right path -->
  <rect x="550" y="156" width="180" height="68" rx="8" fill="#0b7a4b" fill-opacity="0.1" stroke="#0b7a4b" stroke-width="1.5"/>
  <text x="640" y="178" text-anchor="middle" font-size="10" font-weight="bold" fill="#1a1a2e">Minimize cold-node impact</text>
  <text x="640" y="193" text-anchor="middle" font-size="9" fill="#666">Frequent node rotation</text>
  <text x="640" y="207" text-anchor="middle" font-size="9" fill="#666">Pull-time is a key cost</text>

  <line x1="640" y1="224" x2="640" y2="250" stroke="#0b7a4b" stroke-width="1.5" marker-end="url(#arrow-green)"/>

  <rect x="550" y="256" width="180" height="92" rx="8" fill="#fff" stroke="#0b7a4b" stroke-width="2"/>
  <text x="640" y="280" text-anchor="middle" font-size="12" font-weight="bold" fill="#0b7a4b">strategy: modelExposure</text>
  <text x="640" y="298" text-anchor="middle" font-size="9" fill="#666">Inputs: pre/target/pull-time</text>
  <text x="640" y="314" text-anchor="middle" font-size="9" fill="#666">Use when readiness after</text>
  <text x="640" y="330" text-anchor="middle" font-size="9" fill="#666">rotation is the main objective</text>

  <rect x="20" y="370" width="720" height="36" rx="8" fill="#fff" stroke="#e3e3ee" stroke-width="1"/>
  <text x="30" y="392" font-size="10" fill="#666">Recommended progression: signal → weightedSum → modelExposure as operational requirements become stricter.</text>

  <defs>
    <marker id="arrow-red" markerWidth="8" markerHeight="8" refX="6" refY="3" orient="auto">
      <path d="M0,0 L6,3 L0,6 Z" fill="#d81159"/>
    </marker>
    <marker id="arrow-purple" markerWidth="8" markerHeight="8" refX="6" refY="3" orient="auto">
      <path d="M0,0 L6,3 L0,6 Z" fill="#7209b7"/>
    </marker>
    <marker id="arrow-green" markerWidth="8" markerHeight="8" refX="6" refY="3" orient="auto">
      <path d="M0,0 L6,3 L0,6 Z" fill="#0b7a4b"/>
    </marker>
  </defs>
</svg>
