<svg xmlns="http://www.w3.org/2000/svg" viewBox="0 0 720 320" font-family="system-ui, -apple-system, sans-serif" font-size="12">
  <rect width="720" height="320" fill="#fafafa" rx="8"/>
  <rect x="16" y="16" width="688" height="288" rx="6" fill="#181b1f"/>
  <text x="32" y="38" font-size="13" font-weight="bold" fill="#d8d9da">timeWeightedAggregate</text>
  <text x="32" y="54" font-size="10" fill="#8f96a3">each hour scaled by weight, then summed</text>
  <rect x="514" y="24" width="180" height="40" rx="4" fill="#111418" stroke="#2d3138"/>
  <line x1="526" y1="38" x2="542" y2="38" stroke="#5794f2" stroke-width="2"/><text x="548" y="41" font-size="9" fill="#5794f2">img-A</text>
  <line x1="586" y1="38" x2="602" y2="38" stroke="#73bf69" stroke-width="2"/><text x="608" y="41" font-size="9" fill="#73bf69">img-B</text>
  <circle cx="526" cy="54" r="3.5" fill="#7209b7" fill-opacity="0.12"/><text x="535" y="57" font-size="8.5" fill="#7b7d80">x0</text>
  <circle cx="562" cy="54" r="3.5" fill="#7209b7" fill-opacity="0.3"/><text x="571" y="57" font-size="8.5" fill="#b07ad6">x0.3</text>
  <circle cx="610" cy="54" r="3.5" fill="#7209b7"/><text x="619" y="57" font-size="8.5" fill="#b07ad6">x1.0</text>
  <rect x="152" y="64" width="26" height="188" fill="#7209b7" fill-opacity="0.3"/><rect x="178" y="64" width="105" height="188" fill="#7209b7" fill-opacity="0.7"/><rect x="283" y="64" width="39" height="188" fill="#7209b7" fill-opacity="0.3"/>
  <rect x="466" y="64" width="26" height="188" fill="#7209b7" fill-opacity="0.3"/><rect x="492" y="64" width="105" height="188" fill="#7209b7" fill-opacity="0.7"/><rect x="597" y="64" width="39" height="188" fill="#7209b7" fill-opacity="0.3"/>
  <line x1="60" y1="64" x2="60" y2="252" stroke="#33373c"/><line x1="60" y1="252" x2="688" y2="252" stroke="#33373c"/>
  <line x1="374" y1="64" x2="374" y2="252" stroke="#444" stroke-dasharray="3,3"/>
  <g fill="#7b7d80" font-size="9" text-anchor="middle"><text x="60" y="268">00</text><text x="217" y="268">12</text><text x="374" y="268">00</text><text x="531" y="268">12</text><text x="688" y="268">24</text></g>
  <text x="370" y="284" text-anchor="middle" font-size="9" fill="#7b7d80">hour of day · 07-09 ×0.3 · 09-17 ×1.0 · 17-20 ×0.3 · rest ×0</text>
  <polyline fill="none" stroke="#5794f2" stroke-width="2" points="60,223 138,195 217,80 295,166 374,223 452,195 531,80 609,166 688,223"/>
  <polyline fill="none" stroke="#73bf69" stroke-width="2" points="60,252 138,223 217,166 295,223 374,252 452,223 531,166 609,223 688,252"/>
  <g fill="#5794f2"><circle cx="60" cy="223" r="3"/><circle cx="138" cy="195" r="3"/><circle cx="217" cy="80" r="3"/><circle cx="295" cy="166" r="3"/><circle cx="374" cy="223" r="3"/><circle cx="452" cy="195" r="3"/><circle cx="531" cy="80" r="3"/><circle cx="609" cy="166" r="3"/><circle cx="688" cy="223" r="3"/></g>
  <g fill="#73bf69"><circle cx="60" cy="252" r="3"/><circle cx="138" cy="223" r="3"/><circle cx="217" cy="166" r="3"/><circle cx="295" cy="223" r="3"/><circle cx="374" cy="252" r="3"/><circle cx="452" cy="223" r="3"/><circle cx="531" cy="166" r="3"/><circle cx="609" cy="223" r="3"/><circle cx="688" cy="252" r="3"/></g>
</svg>
