<?xml version="1.0" encoding="utf-8" standalone="no"?>
<!DOCTYPE svg PUBLIC "-//W3C//DTD SVG 1.1//EN"
  "http://www.w3.org/Graphics/SVG/1.1/DTD/svg11.dtd">
<svg xmlns:xlink="http://www.w3.org/1999/xlink" width="587.726927pt" height="251.746672pt" viewBox="0 0 587.726927 251.746672" xmlns="http://www.w3.org/2000/svg" version="1.1">
 <metadata>
  <rdf:RDF xmlns:dc="http://purl.org/dc/elements/1.1/" xmlns:cc="http://creativecommons.org/ns#" xmlns:rdf="http://www.w3.org/1999/02/22-rdf-syntax-ns#">
   <cc:Work>
    <dc:type rdf:resource="http://purl.org/dc/dcmitype/StillImage"/>
    <dc:date>2026-07-02T22:26:33.908227</dc:date>
    <dc:format>image/svg+xml</dc:format>
    <dc:creator>
     <cc:Agent>
      <dc:title>Matplotlib v3.11.0, https://matplotlib.org/</dc:title>
     </cc:Agent>
    </dc:creator>
   </cc:Work>
  </rdf:RDF>
 </metadata>
 <defs>
  <style type="text/css">*{stroke-linejoin: round; stroke-linecap: butt}</style>
 </defs>
 <g id="figure_1">
  <g id="patch_1">
   <path d="M 0 251.746672 
L 587.726927 251.746672 
L 587.726927 0 
L 0 0 
z
" style="fill: #fafafa"/>
  </g>
  <g id="axes_1">
   <g id="patch_2">
    <path d="M 30.89875 203.845969 
L 455.41075 203.845969 
L 455.41075 42.277969 
L 30.89875 42.277969 
z
" style="fill: #fafafa"/>
   </g>
   <g id="matplotlib.axis_1">
    <g id="xtick_1">
     <g id="text_1">
      <!-- 00 -->
      <g style="fill: #262626" transform="translate(23.9 221.703391) scale(0.11 -0.11)">
       <defs>
        <path id="DejaVuSans-13" d="M 2034 4250 
Q 1547 4250 1301 3770 
Q 1056 3291 1056 2328 
Q 1056 1369 1301 889 
Q 1547 409 2034 409 
Q 2525 409 2770 889 
Q 3016 1369 3016 2328 
Q 3016 3291 2770 3770 
Q 2525 4250 2034 4250 
z
M 2034 4750 
Q 2819 4750 3233 4129 
Q 3647 3509 3647 2328 
Q 3647 1150 3233 529 
Q 2819 -91 2034 -91 
Q 1250 -91 836 529 
Q 422 1150 422 2328 
Q 422 3509 836 4129 
Q 1250 4750 2034 4750 
z
" transform="scale(0.015625)"/>
       </defs>
       <use xlink:href="#DejaVuSans-13"/>
       <use xlink:href="#DejaVuSans-13" transform="translate(63.625 0)"/>
      </g>
     </g>
    </g>
    <g id="xtick_2">
     <g id="text_2">
      <!-- 06 -->
      <g style="fill: #262626" transform="translate(76.964 221.703391) scale(0.11 -0.11)">
       <defs>
        <path id="DejaVuSans-19" d="M 2113 2584 
Q 1688 2584 1439 2293 
Q 1191 2003 1191 1497 
Q 1191 994 1439 701 
Q 1688 409 2113 409 
Q 2538 409 2786 701 
Q 3034 994 3034 1497 
Q 3034 2003 2786 2293 
Q 2538 2584 2113 2584 
z
M 3366 4563 
L 3366 3988 
Q 3128 4100 2886 4159 
Q 2644 4219 2406 4219 
Q 1781 4219 1451 3797 
Q 1122 3375 1075 2522 
Q 1259 2794 1537 2939 
Q 1816 3084 2150 3084 
Q 2853 3084 3261 2657 
Q 3669 2231 3669 1497 
Q 3669 778 3244 343 
Q 2819 -91 2113 -91 
Q 1303 -91 875 529 
Q 447 1150 447 2328 
Q 447 3434 972 4092 
Q 1497 4750 2381 4750 
Q 2619 4750 2861 4703 
Q 3103 4656 3366 4563 
z
" transform="scale(0.015625)"/>
       </defs>
       <use xlink:href="#DejaVuSans-13"/>
       <use xlink:href="#DejaVuSans-19" transform="translate(63.625 0)"/>
      </g>
     </g>
    </g>
    <g id="xtick_3">
     <g id="text_3">
      <!-- 12 -->
      <g style="fill: #262626" transform="translate(130.028 221.703391) scale(0.11 -0.11)">
       <defs>
        <path id="DejaVuSans-14" d="M 794 531 
L 1825 531 
L 1825 4091 
L 703 3866 
L 703 4441 
L 1819 4666 
L 2450 4666 
L 2450 531 
L 3481 531 
L 3481 0 
L 794 0 
L 794 531 
z
" transform="scale(0.015625)"/>
        <path id="DejaVuSans-15" d="M 1228 531 
L 3431 531 
L 3431 0 
L 469 0 
L 469 531 
Q 828 903 1448 1529 
Q 2069 2156 2228 2338 
Q 2531 2678 2651 2914 
Q 2772 3150 2772 3378 
Q 2772 3750 2511 3984 
Q 2250 4219 1831 4219 
Q 1534 4219 1204 4116 
Q 875 4013 500 3803 
L 500 4441 
Q 881 4594 1212 4672 
Q 1544 4750 1819 4750 
Q 2544 4750 2975 4387 
Q 3406 4025 3406 3419 
Q 3406 3131 3298 2873 
Q 3191 2616 2906 2266 
Q 2828 2175 2409 1742 
Q 1991 1309 1228 531 
z
" transform="scale(0.015625)"/>
       </defs>
       <use xlink:href="#DejaVuSans-14"/>
       <use xlink:href="#DejaVuSans-15" transform="translate(63.625 0)"/>
      </g>
     </g>
    </g>
    <g id="xtick_4">
     <g id="text_4">
      <!-- 18 -->
      <g style="fill: #262626" transform="translate(183.092 221.703391) scale(0.11 -0.11)">
       <defs>
        <path id="DejaVuSans-1b" d="M 2034 2216 
Q 1584 2216 1326 1975 
Q 1069 1734 1069 1313 
Q 1069 891 1326 650 
Q 1584 409 2034 409 
Q 2484 409 2743 651 
Q 3003 894 3003 1313 
Q 3003 1734 2745 1975 
Q 2488 2216 2034 2216 
z
M 1403 2484 
Q 997 2584 770 2862 
Q 544 3141 544 3541 
Q 544 4100 942 4425 
Q 1341 4750 2034 4750 
Q 2731 4750 3128 4425 
Q 3525 4100 3525 3541 
Q 3525 3141 3298 2862 
Q 3072 2584 2669 2484 
Q 3125 2378 3379 2068 
Q 3634 1759 3634 1313 
Q 3634 634 3220 271 
Q 2806 -91 2034 -91 
Q 1263 -91 848 271 
Q 434 634 434 1313 
Q 434 1759 690 2068 
Q 947 2378 1403 2484 
z
M 1172 3481 
Q 1172 3119 1398 2916 
Q 1625 2713 2034 2713 
Q 2441 2713 2670 2916 
Q 2900 3119 2900 3481 
Q 2900 3844 2670 4047 
Q 2441 4250 2034 4250 
Q 1625 4250 1398 4047 
Q 1172 3844 1172 3481 
z
" transform="scale(0.015625)"/>
       </defs>
       <use xlink:href="#DejaVuSans-14"/>
       <use xlink:href="#DejaVuSans-1b" transform="translate(63.625 0)"/>
      </g>
     </g>
    </g>
    <g id="xtick_5">
     <g id="text_5">
      <!-- 00 -->
      <g style="fill: #262626" transform="translate(236.156 221.703391) scale(0.11 -0.11)">
       <use xlink:href="#DejaVuSans-13"/>
       <use xlink:href="#DejaVuSans-13" transform="translate(63.625 0)"/>
      </g>
     </g>
    </g>
    <g id="xtick_6">
     <g id="text_6">
      <!-- 06 -->
      <g style="fill: #262626" transform="translate(289.22 221.703391) scale(0.11 -0.11)">
       <use xlink:href="#DejaVuSans-13"/>
       <use xlink:href="#DejaVuSans-19" transform="translate(63.625 0)"/>
      </g>
     </g>
    </g>
    <g id="xtick_7">
     <g id="text_7">
      <!-- 12 -->
      <g style="fill: #262626" transform="translate(342.284 221.703391) scale(0.11 -0.11)">
       <use xlink:href="#DejaVuSans-14"/>
       <use xlink:href="#DejaVuSans-15" transform="translate(63.625 0)"/>
      </g>
     </g>
    </g>
    <g id="xtick_8">
     <g id="text_8">
      <!-- 18 -->
      <g style="fill: #262626" transform="translate(395.348 221.703391) scale(0.11 -0.11)">
       <use xlink:href="#DejaVuSans-14"/>
       <use xlink:href="#DejaVuSans-1b" transform="translate(63.625 0)"/>
      </g>
     </g>
    </g>
    <g id="xtick_9">
     <g id="text_9">
      <!-- 24 -->
      <g style="fill: #262626" transform="translate(448.412 221.703391) scale(0.11 -0.11)">
       <defs>
        <path id="DejaVuSans-17" d="M 2419 4116 
L 825 1625 
L 2419 1625 
L 2419 4116 
z
M 2253 4666 
L 3047 4666 
L 3047 1625 
L 3713 1625 
L 3713 1100 
L 3047 1100 
L 3047 0 
L 2419 0 
L 2419 1100 
L 313 1100 
L 313 1709 
L 2253 4666 
z
" transform="scale(0.015625)"/>
       </defs>
       <use xlink:href="#DejaVuSans-15"/>
       <use xlink:href="#DejaVuSans-17" transform="translate(63.625 0)"/>
      </g>
     </g>
    </g>
    <g id="text_10">
     <!-- hour of day -->
     <g style="fill: #7b7d80" transform="translate(217.371859 235.184562) scale(0.09 -0.09)">
      <defs>
       <path id="DejaVuSans-4b" d="M 3513 2113 
L 3513 0 
L 2938 0 
L 2938 2094 
Q 2938 2591 2744 2837 
Q 2550 3084 2163 3084 
Q 1697 3084 1428 2787 
Q 1159 2491 1159 1978 
L 1159 0 
L 581 0 
L 581 4863 
L 1159 4863 
L 1159 2956 
Q 1366 3272 1645 3428 
Q 1925 3584 2291 3584 
Q 2894 3584 3203 3211 
Q 3513 2838 3513 2113 
z
" transform="scale(0.015625)"/>
       <path id="DejaVuSans-52" d="M 1959 3097 
Q 1497 3097 1228 2736 
Q 959 2375 959 1747 
Q 959 1119 1226 758 
Q 1494 397 1959 397 
Q 2419 397 2687 759 
Q 2956 1122 2956 1747 
Q 2956 2369 2687 2733 
Q 2419 3097 1959 3097 
z
M 1959 3584 
Q 2709 3584 3137 3096 
Q 3566 2609 3566 1747 
Q 3566 888 3137 398 
Q 2709 -91 1959 -91 
Q 1206 -91 779 398 
Q 353 888 353 1747 
Q 353 2609 779 3096 
Q 1206 3584 1959 3584 
z
" transform="scale(0.015625)"/>
       <path id="DejaVuSans-58" d="M 544 1381 
L 544 3500 
L 1119 3500 
L 1119 1403 
Q 1119 906 1312 657 
Q 1506 409 1894 409 
Q 2359 409 2629 706 
Q 2900 1003 2900 1516 
L 2900 3500 
L 3475 3500 
L 3475 0 
L 2900 0 
L 2900 538 
Q 2691 219 2414 64 
Q 2138 -91 1772 -91 
Q 1169 -91 856 284 
Q 544 659 544 1381 
z
M 1991 3584 
L 1991 3584 
z
" transform="scale(0.015625)"/>
       <path id="DejaVuSans-55" d="M 2631 2963 
Q 2534 3019 2420 3045 
Q 2306 3072 2169 3072 
Q 1681 3072 1420 2755 
Q 1159 2438 1159 1844 
L 1159 0 
L 581 0 
L 581 3500 
L 1159 3500 
L 1159 2956 
Q 1341 3275 1631 3429 
Q 1922 3584 2338 3584 
Q 2397 3584 2469 3576 
Q 2541 3569 2628 3553 
L 2631 2963 
z
" transform="scale(0.015625)"/>
       <path id="DejaVuSans-3" transform="scale(0.015625)"/>
       <path id="DejaVuSans-49" d="M 2375 4863 
L 2375 4384 
L 1825 4384 
Q 1516 4384 1395 4259 
Q 1275 4134 1275 3809 
L 1275 3500 
L 2222 3500 
L 2222 3053 
L 1275 3053 
L 1275 0 
L 697 0 
L 697 3053 
L 147 3053 
L 147 3500 
L 697 3500 
L 697 3744 
Q 697 4328 969 4595 
Q 1241 4863 1831 4863 
L 2375 4863 
z
" transform="scale(0.015625)"/>
       <path id="DejaVuSans-47" d="M 2906 2969 
L 2906 4863 
L 3481 4863 
L 3481 0 
L 2906 0 
L 2906 525 
Q 2725 213 2448 61 
Q 2172 -91 1784 -91 
Q 1150 -91 751 415 
Q 353 922 353 1747 
Q 353 2572 751 3078 
Q 1150 3584 1784 3584 
Q 2172 3584 2448 3432 
Q 2725 3281 2906 2969 
z
M 947 1747 
Q 947 1113 1208 752 
Q 1469 391 1925 391 
Q 2381 391 2643 752 
Q 2906 1113 2906 1747 
Q 2906 2381 2643 2742 
Q 2381 3103 1925 3103 
Q 1469 3103 1208 2742 
Q 947 2381 947 1747 
z
" transform="scale(0.015625)"/>
       <path id="DejaVuSans-44" d="M 2194 1759 
Q 1497 1759 1228 1600 
Q 959 1441 959 1056 
Q 959 750 1161 570 
Q 1363 391 1709 391 
Q 2188 391 2477 730 
Q 2766 1069 2766 1631 
L 2766 1759 
L 2194 1759 
z
M 3341 1997 
L 3341 0 
L 2766 0 
L 2766 531 
Q 2569 213 2275 61 
Q 1981 -91 1556 -91 
Q 1019 -91 701 211 
Q 384 513 384 1019 
Q 384 1609 779 1909 
Q 1175 2209 1959 2209 
L 2766 2209 
L 2766 2266 
Q 2766 2663 2505 2880 
Q 2244 3097 1772 3097 
Q 1472 3097 1187 3025 
Q 903 2953 641 2809 
L 641 3341 
Q 956 3463 1253 3523 
Q 1550 3584 1831 3584 
Q 2591 3584 2966 3190 
Q 3341 2797 3341 1997 
z
" transform="scale(0.015625)"/>
       <path id="DejaVuSans-5c" d="M 2059 -325 
Q 1816 -950 1584 -1140 
Q 1353 -1331 966 -1331 
L 506 -1331 
L 506 -850 
L 844 -850 
Q 1081 -850 1212 -737 
Q 1344 -625 1503 -206 
L 1606 56 
L 191 3500 
L 800 3500 
L 1894 763 
L 2988 3500 
L 3597 3500 
L 2059 -325 
z
" transform="scale(0.015625)"/>
      </defs>
      <use xlink:href="#DejaVuSans-4b"/>
      <use xlink:href="#DejaVuSans-52" transform="translate(63.375 0)"/>
      <use xlink:href="#DejaVuSans-58" transform="translate(124.5625 0)"/>
      <use xlink:href="#DejaVuSans-55" transform="translate(187.9375 0)"/>
      <use xlink:href="#DejaVuSans-3" transform="translate(229.046875 0)"/>
      <use xlink:href="#DejaVuSans-52" transform="translate(260.828125 0)"/>
      <use xlink:href="#DejaVuSans-49" transform="translate(322.015625 0)"/>
      <use xlink:href="#DejaVuSans-3" transform="translate(357.21875 0)"/>
      <use xlink:href="#DejaVuSans-47" transform="translate(389 0)"/>
      <use xlink:href="#DejaVuSans-44" transform="translate(452.484375 0)"/>
      <use xlink:href="#DejaVuSans-5c" transform="translate(513.765625 0)"/>
     </g>
    </g>
   </g>
   <g id="matplotlib.axis_2">
    <g id="ytick_1">
     <g id="line2d_1">
      <path d="M 30.89875 193.747969 
L 455.41075 193.747969 
" clip-path="url(#p56a644bd86)" style="fill: none; stroke: #eceff4; stroke-linecap: round"/>
     </g>
     <g id="text_11">
      <!-- 0 -->
      <g style="fill: #262626" transform="translate(14.4 197.92668) scale(0.11 -0.11)">
       <use xlink:href="#DejaVuSans-13"/>
      </g>
     </g>
    </g>
    <g id="ytick_2">
     <g id="line2d_2">
      <path d="M 30.89875 160.087969 
L 455.41075 160.087969 
" clip-path="url(#p56a644bd86)" style="fill: none; stroke: #eceff4; stroke-linecap: round"/>
     </g>
     <g id="text_12">
      <!-- 2 -->
      <g style="fill: #262626" transform="translate(14.4 164.26668) scale(0.11 -0.11)">
       <use xlink:href="#DejaVuSans-15"/>
      </g>
     </g>
    </g>
    <g id="ytick_3">
     <g id="line2d_3">
      <path d="M 30.89875 126.427969 
L 455.41075 126.427969 
" clip-path="url(#p56a644bd86)" style="fill: none; stroke: #eceff4; stroke-linecap: round"/>
     </g>
     <g id="text_13">
      <!-- 4 -->
      <g style="fill: #262626" transform="translate(14.4 130.60668) scale(0.11 -0.11)">
       <use xlink:href="#DejaVuSans-17"/>
      </g>
     </g>
    </g>
    <g id="ytick_4">
     <g id="line2d_4">
      <path d="M 30.89875 92.767969 
L 455.41075 92.767969 
" clip-path="url(#p56a644bd86)" style="fill: none; stroke: #eceff4; stroke-linecap: round"/>
     </g>
     <g id="text_14">
      <!-- 6 -->
      <g style="fill: #262626" transform="translate(14.4 96.94668) scale(0.11 -0.11)">
       <use xlink:href="#DejaVuSans-19"/>
      </g>
     </g>
    </g>
    <g id="ytick_5">
     <g id="line2d_5">
      <path d="M 30.89875 59.107969 
L 455.41075 59.107969 
" clip-path="url(#p56a644bd86)" style="fill: none; stroke: #eceff4; stroke-linecap: round"/>
     </g>
     <g id="text_15">
      <!-- 8 -->
      <g style="fill: #262626" transform="translate(14.4 63.28668) scale(0.11 -0.11)">
       <use xlink:href="#DejaVuSans-1b"/>
      </g>
     </g>
    </g>
   </g>
   <g id="line2d_6">
    <path d="M 243.15475 203.845969 
L 243.15475 42.277969 
" clip-path="url(#p56a644bd86)" style="fill: none; stroke-dasharray: 3,3; stroke-dashoffset: 0; stroke: #c9cdd6"/>
   </g>
   <g id="line2d_7">
    <path d="M 30.89875 126.427969 
L 39.74275 129.232969 
L 48.58675 132.037969 
L 57.43075 134.842969 
L 66.27475 137.647969 
L 75.11875 140.452969 
L 83.96275 143.257969 
L 92.80675 134.842969 
L 101.65075 126.427969 
L 110.49475 118.012969 
L 119.33875 109.597969 
L 128.18275 101.182969 
L 137.02675 92.767969 
L 145.87075 103.987969 
L 154.71475 115.207969 
L 163.55875 126.427969 
L 172.40275 137.647969 
L 181.24675 148.867969 
L 190.09075 160.087969 
L 198.93475 154.477969 
L 207.77875 148.867969 
L 216.62275 143.257969 
L 225.46675 137.647969 
L 234.31075 132.037969 
L 243.15475 126.427969 
L 251.99875 129.232969 
L 260.84275 132.037969 
L 269.68675 134.842969 
L 278.53075 137.647969 
L 287.37475 140.452969 
L 296.21875 143.257969 
L 305.06275 134.842969 
L 313.90675 126.427969 
L 322.75075 118.012969 
L 331.59475 109.597969 
L 340.43875 101.182969 
L 349.28275 92.767969 
L 358.12675 103.987969 
L 366.97075 115.207969 
L 375.81475 126.427969 
L 384.65875 137.647969 
L 393.50275 148.867969 
L 402.34675 160.087969 
L 411.19075 154.477969 
L 420.03475 148.867969 
L 428.87875 143.257969 
L 437.72275 137.647969 
L 446.56675 132.037969 
L 455.41075 126.427969 
" clip-path="url(#p56a644bd86)" style="fill: none; stroke: #4361ee; stroke-opacity: 0.4; stroke-width: 1.6; stroke-linecap: round"/>
   </g>
   <g id="line2d_8">
    <path d="M 30.89875 176.917969 
L 39.74275 179.722969 
L 48.58675 182.527969 
L 57.43075 185.332969 
L 66.27475 188.137969 
L 75.11875 190.942969 
L 83.96275 193.747969 
L 92.80675 185.332969 
L 101.65075 176.917969 
L 110.49475 168.502969 
L 119.33875 160.087969 
L 128.18275 151.672969 
L 137.02675 143.257969 
L 145.87075 146.062969 
L 154.71475 148.867969 
L 163.55875 151.672969 
L 172.40275 154.477969 
L 181.24675 157.282969 
L 190.09075 160.087969 
L 198.93475 162.892969 
L 207.77875 165.697969 
L 216.62275 168.502969 
L 225.46675 171.307969 
L 234.31075 174.112969 
L 243.15475 176.917969 
L 251.99875 179.722969 
L 260.84275 182.527969 
L 269.68675 185.332969 
L 278.53075 188.137969 
L 287.37475 190.942969 
L 296.21875 193.747969 
L 305.06275 185.332969 
L 313.90675 176.917969 
L 322.75075 168.502969 
L 331.59475 160.087969 
L 340.43875 151.672969 
L 349.28275 143.257969 
L 358.12675 146.062969 
L 366.97075 148.867969 
L 375.81475 151.672969 
L 384.65875 154.477969 
L 393.50275 157.282969 
L 402.34675 160.087969 
L 411.19075 162.892969 
L 420.03475 165.697969 
L 428.87875 168.502969 
L 437.72275 171.307969 
L 446.56675 174.112969 
L 455.41075 176.917969 
" clip-path="url(#p56a644bd86)" style="fill: none; stroke: #2ec4b6; stroke-opacity: 0.4; stroke-width: 1.6; stroke-linecap: round"/>
   </g>
   <g id="patch_3">
    <path d="M 30.89875 203.845969 
L 30.89875 42.277969 
" style="fill: none; stroke: #ccd4e2; stroke-width: 1.25; stroke-linejoin: miter; stroke-linecap: square"/>
   </g>
   <g id="patch_4">
    <path d="M 30.89875 203.845969 
L 455.41075 203.845969 
" style="fill: none; stroke: #ccd4e2; stroke-width: 1.25; stroke-linejoin: miter; stroke-linecap: square"/>
   </g>
   <g id="text_16">
    <!-- the single lowest sample -->
    <g style="fill: #666666" transform="translate(30.89875 35.815249) scale(0.09 -0.09)">
     <defs>
      <path id="DejaVuSans-57" d="M 1172 4494 
L 1172 3500 
L 2356 3500 
L 2356 3053 
L 1172 3053 
L 1172 1153 
Q 1172 725 1289 603 
Q 1406 481 1766 481 
L 2356 481 
L 2356 0 
L 1766 0 
Q 1100 0 847 248 
Q 594 497 594 1153 
L 594 3053 
L 172 3053 
L 172 3500 
L 594 3500 
L 594 4494 
L 1172 4494 
z
" transform="scale(0.015625)"/>
      <path id="DejaVuSans-48" d="M 3597 1894 
L 3597 1613 
L 953 1613 
Q 991 1019 1311 708 
Q 1631 397 2203 397 
Q 2534 397 2845 478 
Q 3156 559 3463 722 
L 3463 178 
Q 3153 47 2828 -22 
Q 2503 -91 2169 -91 
Q 1331 -91 842 396 
Q 353 884 353 1716 
Q 353 2575 817 3079 
Q 1281 3584 2069 3584 
Q 2775 3584 3186 3129 
Q 3597 2675 3597 1894 
z
M 3022 2063 
Q 3016 2534 2758 2815 
Q 2500 3097 2075 3097 
Q 1594 3097 1305 2825 
Q 1016 2553 972 2059 
L 3022 2063 
z
" transform="scale(0.015625)"/>
      <path id="DejaVuSans-56" d="M 2834 3397 
L 2834 2853 
Q 2591 2978 2328 3040 
Q 2066 3103 1784 3103 
Q 1356 3103 1142 2972 
Q 928 2841 928 2578 
Q 928 2378 1081 2264 
Q 1234 2150 1697 2047 
L 1894 2003 
Q 2506 1872 2764 1633 
Q 3022 1394 3022 966 
Q 3022 478 2636 193 
Q 2250 -91 1575 -91 
Q 1294 -91 989 -36 
Q 684 19 347 128 
L 347 722 
Q 666 556 975 473 
Q 1284 391 1588 391 
Q 1994 391 2212 530 
Q 2431 669 2431 922 
Q 2431 1156 2273 1281 
Q 2116 1406 1581 1522 
L 1381 1569 
Q 847 1681 609 1914 
Q 372 2147 372 2553 
Q 372 3047 722 3315 
Q 1072 3584 1716 3584 
Q 2034 3584 2315 3537 
Q 2597 3491 2834 3397 
z
" transform="scale(0.015625)"/>
      <path id="DejaVuSans-4c" d="M 603 3500 
L 1178 3500 
L 1178 0 
L 603 0 
L 603 3500 
z
M 603 4863 
L 1178 4863 
L 1178 4134 
L 603 4134 
L 603 4863 
z
" transform="scale(0.015625)"/>
      <path id="DejaVuSans-51" d="M 3513 2113 
L 3513 0 
L 2938 0 
L 2938 2094 
Q 2938 2591 2744 2837 
Q 2550 3084 2163 3084 
Q 1697 3084 1428 2787 
Q 1159 2491 1159 1978 
L 1159 0 
L 581 0 
L 581 3500 
L 1159 3500 
L 1159 2956 
Q 1366 3272 1645 3428 
Q 1925 3584 2291 3584 
Q 2894 3584 3203 3211 
Q 3513 2838 3513 2113 
z
" transform="scale(0.015625)"/>
      <path id="DejaVuSans-4a" d="M 2906 1791 
Q 2906 2416 2648 2759 
Q 2391 3103 1925 3103 
Q 1463 3103 1205 2759 
Q 947 2416 947 1791 
Q 947 1169 1205 825 
Q 1463 481 1925 481 
Q 2391 481 2648 825 
Q 2906 1169 2906 1791 
z
M 3481 434 
Q 3481 -459 3084 -895 
Q 2688 -1331 1869 -1331 
Q 1566 -1331 1297 -1286 
Q 1028 -1241 775 -1147 
L 775 -588 
Q 1028 -725 1275 -790 
Q 1522 -856 1778 -856 
Q 2344 -856 2625 -561 
Q 2906 -266 2906 331 
L 2906 616 
Q 2728 306 2450 153 
Q 2172 0 1784 0 
Q 1141 0 747 490 
Q 353 981 353 1791 
Q 353 2603 747 3093 
Q 1141 3584 1784 3584 
Q 2172 3584 2450 3431 
Q 2728 3278 2906 2969 
L 2906 3500 
L 3481 3500 
L 3481 434 
z
" transform="scale(0.015625)"/>
      <path id="DejaVuSans-4f" d="M 603 4863 
L 1178 4863 
L 1178 0 
L 603 0 
L 603 4863 
z
" transform="scale(0.015625)"/>
      <path id="DejaVuSans-5a" d="M 269 3500 
L 844 3500 
L 1563 769 
L 2278 3500 
L 2956 3500 
L 3675 769 
L 4391 3500 
L 4966 3500 
L 4050 0 
L 3372 0 
L 2619 2869 
L 1863 0 
L 1184 0 
L 269 3500 
z
" transform="scale(0.015625)"/>
      <path id="DejaVuSans-50" d="M 3328 2828 
Q 3544 3216 3844 3400 
Q 4144 3584 4550 3584 
Q 5097 3584 5394 3201 
Q 5691 2819 5691 2113 
L 5691 0 
L 5113 0 
L 5113 2094 
Q 5113 2597 4934 2840 
Q 4756 3084 4391 3084 
Q 3944 3084 3684 2787 
Q 3425 2491 3425 1978 
L 3425 0 
L 2847 0 
L 2847 2094 
Q 2847 2600 2669 2842 
Q 2491 3084 2119 3084 
Q 1678 3084 1418 2786 
Q 1159 2488 1159 1978 
L 1159 0 
L 581 0 
L 581 3500 
L 1159 3500 
L 1159 2956 
Q 1356 3278 1631 3431 
Q 1906 3584 2284 3584 
Q 2666 3584 2933 3390 
Q 3200 3197 3328 2828 
z
" transform="scale(0.015625)"/>
      <path id="DejaVuSans-53" d="M 1159 525 
L 1159 -1331 
L 581 -1331 
L 581 3500 
L 1159 3500 
L 1159 2969 
Q 1341 3281 1617 3432 
Q 1894 3584 2278 3584 
Q 2916 3584 3314 3078 
Q 3713 2572 3713 1747 
Q 3713 922 3314 415 
Q 2916 -91 2278 -91 
Q 1894 -91 1617 61 
Q 1341 213 1159 525 
z
M 3116 1747 
Q 3116 2381 2855 2742 
Q 2594 3103 2138 3103 
Q 1681 3103 1420 2742 
Q 1159 2381 1159 1747 
Q 1159 1113 1420 752 
Q 1681 391 2138 391 
Q 2594 391 2855 752 
Q 3116 1113 3116 1747 
z
" transform="scale(0.015625)"/>
     </defs>
     <use xlink:href="#DejaVuSans-57"/>
     <use xlink:href="#DejaVuSans-4b" transform="translate(39.203125 0)"/>
     <use xlink:href="#DejaVuSans-48" transform="translate(102.578125 0)"/>
     <use xlink:href="#DejaVuSans-3" transform="translate(164.109375 0)"/>
     <use xlink:href="#DejaVuSans-56" transform="translate(195.890625 0)"/>
     <use xlink:href="#DejaVuSans-4c" transform="translate(247.984375 0)"/>
     <use xlink:href="#DejaVuSans-51" transform="translate(275.765625 0)"/>
     <use xlink:href="#DejaVuSans-4a" transform="translate(339.140625 0)"/>
     <use xlink:href="#DejaVuSans-4f" transform="translate(402.625 0)"/>
     <use xlink:href="#DejaVuSans-48" transform="translate(430.40625 0)"/>
     <use xlink:href="#DejaVuSans-3" transform="translate(491.9375 0)"/>
     <use xlink:href="#DejaVuSans-4f" transform="translate(523.71875 0)"/>
     <use xlink:href="#DejaVuSans-52" transform="translate(551.5 0)"/>
     <use xlink:href="#DejaVuSans-5a" transform="translate(612.6875 0)"/>
     <use xlink:href="#DejaVuSans-48" transform="translate(694.46875 0)"/>
     <use xlink:href="#DejaVuSans-56" transform="translate(756 0)"/>
     <use xlink:href="#DejaVuSans-57" transform="translate(808.09375 0)"/>
     <use xlink:href="#DejaVuSans-3" transform="translate(847.296875 0)"/>
     <use xlink:href="#DejaVuSans-56" transform="translate(879.078125 0)"/>
     <use xlink:href="#DejaVuSans-44" transform="translate(931.171875 0)"/>
     <use xlink:href="#DejaVuSans-50" transform="translate(992.453125 0)"/>
     <use xlink:href="#DejaVuSans-53" transform="translate(1089.859375 0)"/>
     <use xlink:href="#DejaVuSans-4f" transform="translate(1153.34375 0)"/>
     <use xlink:href="#DejaVuSans-48" transform="translate(1181.125 0)"/>
    </g>
   </g>
   <g id="text_17">
    <!-- day 1 -->
    <g style="fill: #9aa0ab" transform="translate(125.852375 49.009969) scale(0.08 -0.08)">
     <use xlink:href="#DejaVuSans-47"/>
     <use xlink:href="#DejaVuSans-44" transform="translate(63.484375 0)"/>
     <use xlink:href="#DejaVuSans-5c" transform="translate(124.765625 0)"/>
     <use xlink:href="#DejaVuSans-3" transform="translate(183.953125 0)"/>
     <use xlink:href="#DejaVuSans-14" transform="translate(215.734375 0)"/>
    </g>
   </g>
   <g id="text_18">
    <!-- day 2 -->
    <g style="fill: #9aa0ab" transform="translate(338.108375 49.009969) scale(0.08 -0.08)">
     <use xlink:href="#DejaVuSans-47"/>
     <use xlink:href="#DejaVuSans-44" transform="translate(63.484375 0)"/>
     <use xlink:href="#DejaVuSans-5c" transform="translate(124.765625 0)"/>
     <use xlink:href="#DejaVuSans-3" transform="translate(183.953125 0)"/>
     <use xlink:href="#DejaVuSans-15" transform="translate(215.734375 0)"/>
    </g>
   </g>
   <g id="line2d_9">
    <defs>
     <path id="m108c69db5c" d="M 0 2 
C 0.530406 2 1.03916 1.789267 1.414214 1.414214 
C 1.789267 1.03916 2 0.530406 2 0 
C 2 -0.530406 1.789267 -1.03916 1.414214 -1.414214 
C 1.03916 -1.789267 0.530406 -2 0 -2 
C -0.530406 -2 -1.03916 -1.789267 -1.414214 -1.414214 
C -1.789267 -1.03916 -2 -0.530406 -2 0 
C -2 0.530406 -1.789267 1.03916 -1.414214 1.414214 
C -1.03916 1.789267 -0.530406 2 0 2 
z
" style="stroke: #4361ee; stroke-opacity: 0.4"/>
    </defs>
    <g clip-path="url(#p56a644bd86)">
     <use xlink:href="#m108c69db5c" x="30.89875" y="126.427969" style="fill: #4361ee; fill-opacity: 0.4; stroke: #4361ee; stroke-opacity: 0.4"/>
    </g>
   </g>
   <g id="line2d_10">
    <g clip-path="url(#p56a644bd86)">
     <use xlink:href="#m108c69db5c" x="83.96275" y="143.257969" style="fill: #4361ee; fill-opacity: 0.4; stroke: #4361ee; stroke-opacity: 0.4"/>
    </g>
   </g>
   <g id="line2d_11">
    <g clip-path="url(#p56a644bd86)">
     <use xlink:href="#m108c69db5c" x="137.02675" y="92.767969" style="fill: #4361ee; fill-opacity: 0.4; stroke: #4361ee; stroke-opacity: 0.4"/>
    </g>
   </g>
   <g id="line2d_12">
    <g clip-path="url(#p56a644bd86)">
     <use xlink:href="#m108c69db5c" x="190.09075" y="160.087969" style="fill: #4361ee; fill-opacity: 0.4; stroke: #4361ee; stroke-opacity: 0.4"/>
    </g>
   </g>
   <g id="line2d_13">
    <g clip-path="url(#p56a644bd86)">
     <use xlink:href="#m108c69db5c" x="243.15475" y="126.427969" style="fill: #4361ee; fill-opacity: 0.4; stroke: #4361ee; stroke-opacity: 0.4"/>
    </g>
   </g>
   <g id="line2d_14">
    <g clip-path="url(#p56a644bd86)">
     <use xlink:href="#m108c69db5c" x="296.21875" y="143.257969" style="fill: #4361ee; fill-opacity: 0.4; stroke: #4361ee; stroke-opacity: 0.4"/>
    </g>
   </g>
   <g id="line2d_15">
    <g clip-path="url(#p56a644bd86)">
     <use xlink:href="#m108c69db5c" x="349.28275" y="92.767969" style="fill: #4361ee; fill-opacity: 0.4; stroke: #4361ee; stroke-opacity: 0.4"/>
    </g>
   </g>
   <g id="line2d_16">
    <g clip-path="url(#p56a644bd86)">
     <use xlink:href="#m108c69db5c" x="402.34675" y="160.087969" style="fill: #4361ee; fill-opacity: 0.4; stroke: #4361ee; stroke-opacity: 0.4"/>
    </g>
   </g>
   <g id="line2d_17">
    <defs>
     <path id="m5330865d8a" d="M 0 2 
C 0.530406 2 1.03916 1.789267 1.414214 1.414214 
C 1.789267 1.03916 2 0.530406 2 0 
C 2 -0.530406 1.789267 -1.03916 1.414214 -1.414214 
C 1.03916 -1.789267 0.530406 -2 0 -2 
C -0.530406 -2 -1.03916 -1.789267 -1.414214 -1.414214 
C -1.789267 -1.03916 -2 -0.530406 -2 0 
C -2 0.530406 -1.789267 1.03916 -1.414214 1.414214 
C -1.03916 1.789267 -0.530406 2 0 2 
z
" style="stroke: #2ec4b6; stroke-opacity: 0.4"/>
    </defs>
    <g clip-path="url(#p56a644bd86)">
     <use xlink:href="#m5330865d8a" x="30.89875" y="176.917969" style="fill: #2ec4b6; fill-opacity: 0.4; stroke: #2ec4b6; stroke-opacity: 0.4"/>
    </g>
   </g>
   <g id="line2d_18">
    <g clip-path="url(#p56a644bd86)">
     <use xlink:href="#m5330865d8a" x="83.96275" y="193.747969" style="fill: #2ec4b6; fill-opacity: 0.4; stroke: #2ec4b6; stroke-opacity: 0.4"/>
    </g>
   </g>
   <g id="line2d_19">
    <g clip-path="url(#p56a644bd86)">
     <use xlink:href="#m5330865d8a" x="137.02675" y="143.257969" style="fill: #2ec4b6; fill-opacity: 0.4; stroke: #2ec4b6; stroke-opacity: 0.4"/>
    </g>
   </g>
   <g id="line2d_20">
    <g clip-path="url(#p56a644bd86)">
     <use xlink:href="#m5330865d8a" x="190.09075" y="160.087969" style="fill: #2ec4b6; fill-opacity: 0.4; stroke: #2ec4b6; stroke-opacity: 0.4"/>
    </g>
   </g>
   <g id="line2d_21">
    <g clip-path="url(#p56a644bd86)">
     <use xlink:href="#m5330865d8a" x="243.15475" y="176.917969" style="fill: #2ec4b6; fill-opacity: 0.4; stroke: #2ec4b6; stroke-opacity: 0.4"/>
    </g>
   </g>
   <g id="line2d_22">
    <g clip-path="url(#p56a644bd86)">
     <use xlink:href="#m5330865d8a" x="296.21875" y="193.747969" style="fill: #2ec4b6; fill-opacity: 0.4; stroke: #2ec4b6; stroke-opacity: 0.4"/>
    </g>
   </g>
   <g id="line2d_23">
    <g clip-path="url(#p56a644bd86)">
     <use xlink:href="#m5330865d8a" x="349.28275" y="143.257969" style="fill: #2ec4b6; fill-opacity: 0.4; stroke: #2ec4b6; stroke-opacity: 0.4"/>
    </g>
   </g>
   <g id="line2d_24">
    <g clip-path="url(#p56a644bd86)">
     <use xlink:href="#m5330865d8a" x="402.34675" y="160.087969" style="fill: #2ec4b6; fill-opacity: 0.4; stroke: #2ec4b6; stroke-opacity: 0.4"/>
    </g>
   </g>
   <g id="text_19">
    <!-- aggregate · method=min -->
    <g style="fill: #1a1a2e" transform="translate(30.89875 24.277969) scale(0.13 -0.13)">
     <defs>
      <path id="DejaVuSans-Bold-44" d="M 2106 1575 
Q 1756 1575 1579 1456 
Q 1403 1338 1403 1106 
Q 1403 894 1545 773 
Q 1688 653 1941 653 
Q 2256 653 2472 879 
Q 2688 1106 2688 1447 
L 2688 1575 
L 2106 1575 
z
M 3816 1997 
L 3816 0 
L 2688 0 
L 2688 519 
Q 2463 200 2181 54 
Q 1900 -91 1497 -91 
Q 953 -91 614 226 
Q 275 544 275 1050 
Q 275 1666 698 1953 
Q 1122 2241 2028 2241 
L 2688 2241 
L 2688 2328 
Q 2688 2594 2478 2717 
Q 2269 2841 1825 2841 
Q 1466 2841 1156 2769 
Q 847 2697 581 2553 
L 581 3406 
Q 941 3494 1303 3539 
Q 1666 3584 2028 3584 
Q 2975 3584 3395 3211 
Q 3816 2838 3816 1997 
z
" transform="scale(0.015625)"/>
      <path id="DejaVuSans-Bold-4a" d="M 2919 594 
Q 2688 288 2409 144 
Q 2131 0 1766 0 
Q 1125 0 706 504 
Q 288 1009 288 1791 
Q 288 2575 706 3076 
Q 1125 3578 1766 3578 
Q 2131 3578 2409 3434 
Q 2688 3291 2919 2981 
L 2919 3500 
L 4044 3500 
L 4044 353 
Q 4044 -491 3511 -936 
Q 2978 -1381 1966 -1381 
Q 1638 -1381 1331 -1331 
Q 1025 -1281 716 -1178 
L 716 -306 
Q 1009 -475 1290 -558 
Q 1572 -641 1856 -641 
Q 2406 -641 2662 -400 
Q 2919 -159 2919 353 
L 2919 594 
z
M 2181 2772 
Q 1834 2772 1640 2515 
Q 1447 2259 1447 1791 
Q 1447 1309 1634 1061 
Q 1822 813 2181 813 
Q 2531 813 2725 1069 
Q 2919 1325 2919 1791 
Q 2919 2259 2725 2515 
Q 2531 2772 2181 2772 
z
" transform="scale(0.015625)"/>
      <path id="DejaVuSans-Bold-55" d="M 3138 2547 
Q 2991 2616 2845 2648 
Q 2700 2681 2553 2681 
Q 2122 2681 1889 2404 
Q 1656 2128 1656 1613 
L 1656 0 
L 538 0 
L 538 3500 
L 1656 3500 
L 1656 2925 
Q 1872 3269 2151 3426 
Q 2431 3584 2822 3584 
Q 2878 3584 2943 3579 
Q 3009 3575 3134 3559 
L 3138 2547 
z
" transform="scale(0.015625)"/>
      <path id="DejaVuSans-Bold-48" d="M 4031 1759 
L 4031 1441 
L 1416 1441 
Q 1456 1047 1700 850 
Q 1944 653 2381 653 
Q 2734 653 3104 758 
Q 3475 863 3866 1075 
L 3866 213 
Q 3469 63 3072 -14 
Q 2675 -91 2278 -91 
Q 1328 -91 801 392 
Q 275 875 275 1747 
Q 275 2603 792 3093 
Q 1309 3584 2216 3584 
Q 3041 3584 3536 3087 
Q 4031 2591 4031 1759 
z
M 2881 2131 
Q 2881 2450 2695 2645 
Q 2509 2841 2209 2841 
Q 1884 2841 1681 2658 
Q 1478 2475 1428 2131 
L 2881 2131 
z
" transform="scale(0.015625)"/>
      <path id="DejaVuSans-Bold-57" d="M 1759 4494 
L 1759 3500 
L 2913 3500 
L 2913 2700 
L 1759 2700 
L 1759 1216 
Q 1759 972 1856 886 
Q 1953 800 2241 800 
L 2816 800 
L 2816 0 
L 1856 0 
Q 1194 0 917 276 
Q 641 553 641 1216 
L 641 2700 
L 84 2700 
L 84 3500 
L 641 3500 
L 641 4494 
L 1759 4494 
z
" transform="scale(0.015625)"/>
      <path id="DejaVuSans-Bold-3" transform="scale(0.015625)"/>
      <path id="DejaVuSans-Bold-79" d="M 653 2828 
L 1778 2828 
L 1778 1619 
L 653 1619 
L 653 2828 
z
" transform="scale(0.015625)"/>
      <path id="DejaVuSans-Bold-50" d="M 3781 2919 
Q 3994 3244 4286 3414 
Q 4578 3584 4928 3584 
Q 5531 3584 5847 3212 
Q 6163 2841 6163 2131 
L 6163 0 
L 5038 0 
L 5038 1825 
Q 5041 1866 5042 1909 
Q 5044 1953 5044 2034 
Q 5044 2406 4934 2573 
Q 4825 2741 4581 2741 
Q 4263 2741 4089 2478 
Q 3916 2216 3909 1719 
L 3909 0 
L 2784 0 
L 2784 1825 
Q 2784 2406 2684 2573 
Q 2584 2741 2328 2741 
Q 2006 2741 1831 2477 
Q 1656 2213 1656 1722 
L 1656 0 
L 531 0 
L 531 3500 
L 1656 3500 
L 1656 2988 
Q 1863 3284 2130 3434 
Q 2397 3584 2719 3584 
Q 3081 3584 3359 3409 
Q 3638 3234 3781 2919 
z
" transform="scale(0.015625)"/>
      <path id="DejaVuSans-Bold-4b" d="M 4056 2131 
L 4056 0 
L 2931 0 
L 2931 347 
L 2931 1625 
Q 2931 2084 2911 2256 
Q 2891 2428 2841 2509 
Q 2775 2619 2662 2680 
Q 2550 2741 2406 2741 
Q 2056 2741 1856 2470 
Q 1656 2200 1656 1722 
L 1656 0 
L 538 0 
L 538 4863 
L 1656 4863 
L 1656 2988 
Q 1909 3294 2193 3439 
Q 2478 3584 2822 3584 
Q 3428 3584 3742 3212 
Q 4056 2841 4056 2131 
z
" transform="scale(0.015625)"/>
      <path id="DejaVuSans-Bold-52" d="M 2203 2784 
Q 1831 2784 1636 2517 
Q 1441 2250 1441 1747 
Q 1441 1244 1636 976 
Q 1831 709 2203 709 
Q 2569 709 2762 976 
Q 2956 1244 2956 1747 
Q 2956 2250 2762 2517 
Q 2569 2784 2203 2784 
z
M 2203 3584 
Q 3106 3584 3614 3096 
Q 4122 2609 4122 1747 
Q 4122 884 3614 396 
Q 3106 -91 2203 -91 
Q 1297 -91 786 396 
Q 275 884 275 1747 
Q 275 2609 786 3096 
Q 1297 3584 2203 3584 
z
" transform="scale(0.015625)"/>
      <path id="DejaVuSans-Bold-47" d="M 2919 2988 
L 2919 4863 
L 4044 4863 
L 4044 0 
L 2919 0 
L 2919 506 
Q 2688 197 2409 53 
Q 2131 -91 1766 -91 
Q 1119 -91 703 423 
Q 288 938 288 1747 
Q 288 2556 703 3070 
Q 1119 3584 1766 3584 
Q 2128 3584 2408 3439 
Q 2688 3294 2919 2988 
z
M 2181 722 
Q 2541 722 2730 984 
Q 2919 1247 2919 1747 
Q 2919 2247 2730 2509 
Q 2541 2772 2181 2772 
Q 1825 2772 1636 2509 
Q 1447 2247 1447 1747 
Q 1447 1247 1636 984 
Q 1825 722 2181 722 
z
" transform="scale(0.015625)"/>
      <path id="DejaVuSans-Bold-20" d="M 678 3084 
L 4684 3084 
L 4684 2350 
L 678 2350 
L 678 3084 
z
M 678 1663 
L 4684 1663 
L 4684 922 
L 678 922 
L 678 1663 
z
" transform="scale(0.015625)"/>
      <path id="DejaVuSans-Bold-4c" d="M 538 3500 
L 1656 3500 
L 1656 0 
L 538 0 
L 538 3500 
z
M 538 4863 
L 1656 4863 
L 1656 3950 
L 538 3950 
L 538 4863 
z
" transform="scale(0.015625)"/>
      <path id="DejaVuSans-Bold-51" d="M 4056 2131 
L 4056 0 
L 2931 0 
L 2931 347 
L 2931 1631 
Q 2931 2084 2911 2256 
Q 2891 2428 2841 2509 
Q 2775 2619 2662 2680 
Q 2550 2741 2406 2741 
Q 2056 2741 1856 2470 
Q 1656 2200 1656 1722 
L 1656 0 
L 538 0 
L 538 3500 
L 1656 3500 
L 1656 2988 
Q 1909 3294 2193 3439 
Q 2478 3584 2822 3584 
Q 3428 3584 3742 3212 
Q 4056 2841 4056 2131 
z
" transform="scale(0.015625)"/>
     </defs>
     <use xlink:href="#DejaVuSans-Bold-44"/>
     <use xlink:href="#DejaVuSans-Bold-4a" transform="translate(67.484375 0)"/>
     <use xlink:href="#DejaVuSans-Bold-4a" transform="translate(139.0625 0)"/>
     <use xlink:href="#DejaVuSans-Bold-55" transform="translate(210.640625 0)"/>
     <use xlink:href="#DejaVuSans-Bold-48" transform="translate(259.953125 0)"/>
     <use xlink:href="#DejaVuSans-Bold-4a" transform="translate(327.78125 0)"/>
     <use xlink:href="#DejaVuSans-Bold-44" transform="translate(399.359375 0)"/>
     <use xlink:href="#DejaVuSans-Bold-57" transform="translate(466.84375 0)"/>
     <use xlink:href="#DejaVuSans-Bold-48" transform="translate(514.640625 0)"/>
     <use xlink:href="#DejaVuSans-Bold-3" transform="translate(582.46875 0)"/>
     <use xlink:href="#DejaVuSans-Bold-79" transform="translate(617.28125 0)"/>
     <use xlink:href="#DejaVuSans-Bold-3" transform="translate(655.265625 0)"/>
     <use xlink:href="#DejaVuSans-Bold-50" transform="translate(690.078125 0)"/>
     <use xlink:href="#DejaVuSans-Bold-48" transform="translate(794.28125 0)"/>
     <use xlink:href="#DejaVuSans-Bold-57" transform="translate(862.109375 0)"/>
     <use xlink:href="#DejaVuSans-Bold-4b" transform="translate(909.90625 0)"/>
     <use xlink:href="#DejaVuSans-Bold-52" transform="translate(981.09375 0)"/>
     <use xlink:href="#DejaVuSans-Bold-47" transform="translate(1049.796875 0)"/>
     <use xlink:href="#DejaVuSans-Bold-20" transform="translate(1121.375 0)"/>
     <use xlink:href="#DejaVuSans-Bold-50" transform="translate(1205.171875 0)"/>
     <use xlink:href="#DejaVuSans-Bold-4c" transform="translate(1309.375 0)"/>
     <use xlink:href="#DejaVuSans-Bold-51" transform="translate(1343.65625 0)"/>
    </g>
   </g>
   <g id="legend_1">
    <g id="patch_5">
     <path d="M 470.20099 98.980078 
L 571.526928 98.980078 
Q 573.326928 98.980078 573.326928 97.180078 
L 573.326928 48.577969 
Q 573.326928 46.777969 571.526928 46.777969 
L 470.20099 46.777969 
Q 468.40099 46.777969 468.40099 48.577969 
L 468.40099 97.180078 
Q 468.40099 98.980078 470.20099 98.980078 
z
" style="fill: #ffffff; opacity: 0.8; stroke: #e0e4ec; stroke-linejoin: miter"/>
    </g>
    <g id="text_20">
     <!-- score -->
     <g style="fill: #1a1a2e" transform="translate(475.60099 60.816562) scale(0.09 -0.09)">
      <defs>
       <path id="DejaVuSans-Bold-56" d="M 3272 3391 
L 3272 2541 
Q 2913 2691 2578 2766 
Q 2244 2841 1947 2841 
Q 1628 2841 1473 2761 
Q 1319 2681 1319 2516 
Q 1319 2381 1436 2309 
Q 1553 2238 1856 2203 
L 2053 2175 
Q 2913 2066 3209 1816 
Q 3506 1566 3506 1031 
Q 3506 472 3093 190 
Q 2681 -91 1863 -91 
Q 1516 -91 1145 -36 
Q 775 19 384 128 
L 384 978 
Q 719 816 1070 734 
Q 1422 653 1784 653 
Q 2113 653 2278 743 
Q 2444 834 2444 1013 
Q 2444 1163 2330 1236 
Q 2216 1309 1875 1350 
L 1678 1375 
Q 931 1469 631 1722 
Q 331 1975 331 2491 
Q 331 3047 712 3315 
Q 1094 3584 1881 3584 
Q 2191 3584 2531 3537 
Q 2872 3491 3272 3391 
z
" transform="scale(0.015625)"/>
       <path id="DejaVuSans-Bold-46" d="M 3366 3391 
L 3366 2478 
Q 3138 2634 2908 2709 
Q 2678 2784 2431 2784 
Q 1963 2784 1702 2511 
Q 1441 2238 1441 1747 
Q 1441 1256 1702 982 
Q 1963 709 2431 709 
Q 2694 709 2930 787 
Q 3166 866 3366 1019 
L 3366 103 
Q 3103 6 2833 -42 
Q 2563 -91 2291 -91 
Q 1344 -91 809 395 
Q 275 881 275 1747 
Q 275 2613 809 3098 
Q 1344 3584 2291 3584 
Q 2566 3584 2833 3536 
Q 3100 3488 3366 3391 
z
" transform="scale(0.015625)"/>
      </defs>
      <use xlink:href="#DejaVuSans-Bold-56"/>
      <use xlink:href="#DejaVuSans-Bold-46" transform="translate(59.515625 0)"/>
      <use xlink:href="#DejaVuSans-Bold-52" transform="translate(118.796875 0)"/>
      <use xlink:href="#DejaVuSans-Bold-55" transform="translate(187.5 0)"/>
      <use xlink:href="#DejaVuSans-Bold-48" transform="translate(236.8125 0)"/>
     </g>
    </g>
    <g id="line2d_25">
     <path d="M 475.60099 72.067266 
L 481.90099 72.067266 
L 488.20099 72.067266 
" style="fill: none; stroke: #4361ee; stroke-width: 3; stroke-linecap: round"/>
    </g>
    <g id="text_21">
     <!-- img-A · min = 2 -->
     <g style="fill: #262626" transform="translate(495.40099 75.217266) scale(0.09 -0.09)">
      <defs>
       <path id="DejaVuSans-10" d="M 313 2009 
L 1997 2009 
L 1997 1497 
L 313 1497 
L 313 2009 
z
" transform="scale(0.015625)"/>
       <path id="DejaVuSans-24" d="M 2188 4044 
L 1331 1722 
L 3047 1722 
L 2188 4044 
z
M 1831 4666 
L 2547 4666 
L 4325 0 
L 3669 0 
L 3244 1197 
L 1141 1197 
L 716 0 
L 50 0 
L 1831 4666 
z
" transform="scale(0.015625)"/>
       <path id="DejaVuSans-79" d="M 684 2619 
L 1344 2619 
L 1344 1825 
L 684 1825 
L 684 2619 
z
" transform="scale(0.015625)"/>
       <path id="DejaVuSans-20" d="M 678 2906 
L 4684 2906 
L 4684 2381 
L 678 2381 
L 678 2906 
z
M 678 1631 
L 4684 1631 
L 4684 1100 
L 678 1100 
L 678 1631 
z
" transform="scale(0.015625)"/>
      </defs>
      <use xlink:href="#DejaVuSans-4c"/>
      <use xlink:href="#DejaVuSans-50" transform="translate(27.78125 0)"/>
      <use xlink:href="#DejaVuSans-4a" transform="translate(125.1875 0)"/>
      <use xlink:href="#DejaVuSans-10" transform="translate(188.671875 0)"/>
      <use xlink:href="#DejaVuSans-24" transform="translate(222.546875 0)"/>
      <use xlink:href="#DejaVuSans-3" transform="translate(290.953125 0)"/>
      <use xlink:href="#DejaVuSans-79" transform="translate(322.734375 0)"/>
      <use xlink:href="#DejaVuSans-3" transform="translate(354.515625 0)"/>
      <use xlink:href="#DejaVuSans-50" transform="translate(386.296875 0)"/>
      <use xlink:href="#DejaVuSans-4c" transform="translate(483.703125 0)"/>
      <use xlink:href="#DejaVuSans-51" transform="translate(511.484375 0)"/>
      <use xlink:href="#DejaVuSans-3" transform="translate(574.859375 0)"/>
      <use xlink:href="#DejaVuSans-20" transform="translate(606.640625 0)"/>
      <use xlink:href="#DejaVuSans-3" transform="translate(690.4375 0)"/>
      <use xlink:href="#DejaVuSans-15" transform="translate(722.21875 0)"/>
     </g>
    </g>
    <g id="line2d_26">
     <path d="M 475.60099 86.467969 
L 481.90099 86.467969 
L 488.20099 86.467969 
" style="fill: none; stroke: #2ec4b6; stroke-width: 3; stroke-linecap: round"/>
    </g>
    <g id="text_22">
     <!-- img-B · min = 0 -->
     <g style="fill: #262626" transform="translate(495.40099 89.617969) scale(0.09 -0.09)">
      <defs>
       <path id="DejaVuSans-25" d="M 1259 2228 
L 1259 519 
L 2272 519 
Q 2781 519 3026 730 
Q 3272 941 3272 1375 
Q 3272 1813 3026 2020 
Q 2781 2228 2272 2228 
L 1259 2228 
z
M 1259 4147 
L 1259 2741 
L 2194 2741 
Q 2656 2741 2882 2914 
Q 3109 3088 3109 3444 
Q 3109 3797 2882 3972 
Q 2656 4147 2194 4147 
L 1259 4147 
z
M 628 4666 
L 2241 4666 
Q 2963 4666 3353 4366 
Q 3744 4066 3744 3513 
Q 3744 3084 3544 2831 
Q 3344 2578 2956 2516 
Q 3422 2416 3680 2098 
Q 3938 1781 3938 1306 
Q 3938 681 3513 340 
Q 3088 0 2303 0 
L 628 0 
L 628 4666 
z
" transform="scale(0.015625)"/>
      </defs>
      <use xlink:href="#DejaVuSans-4c"/>
      <use xlink:href="#DejaVuSans-50" transform="translate(27.78125 0)"/>
      <use xlink:href="#DejaVuSans-4a" transform="translate(125.1875 0)"/>
      <use xlink:href="#DejaVuSans-10" transform="translate(188.671875 0)"/>
      <use xlink:href="#DejaVuSans-25" transform="translate(221.1875 0)"/>
      <use xlink:href="#DejaVuSans-3" transform="translate(289.796875 0)"/>
      <use xlink:href="#DejaVuSans-79" transform="translate(321.578125 0)"/>
      <use xlink:href="#DejaVuSans-3" transform="translate(353.359375 0)"/>
      <use xlink:href="#DejaVuSans-50" transform="translate(385.140625 0)"/>
      <use xlink:href="#DejaVuSans-4c" transform="translate(482.546875 0)"/>
      <use xlink:href="#DejaVuSans-51" transform="translate(510.328125 0)"/>
      <use xlink:href="#DejaVuSans-3" transform="translate(573.703125 0)"/>
      <use xlink:href="#DejaVuSans-20" transform="translate(605.484375 0)"/>
      <use xlink:href="#DejaVuSans-3" transform="translate(689.28125 0)"/>
      <use xlink:href="#DejaVuSans-13" transform="translate(721.0625 0)"/>
     </g>
    </g>
   </g>
   <g id="line2d_27">
    <defs>
     <path id="m483b5941fa" d="M 0 8 
C 2.121625 8 4.156639 7.15707 5.656854 5.656854 
C 7.15707 4.156639 8 2.121625 8 0 
C 8 -2.121625 7.15707 -4.156639 5.656854 -5.656854 
C 4.156639 -7.15707 2.121625 -8 0 -8 
C -2.121625 -8 -4.156639 -7.15707 -5.656854 -5.656854 
C -7.15707 -4.156639 -8 -2.121625 -8 0 
C -8 2.121625 -7.15707 4.156639 -5.656854 5.656854 
C -4.156639 7.15707 -2.121625 8 0 8 
z
" style="stroke: #4361ee; stroke-width: 2.6"/>
    </defs>
    <g>
     <use xlink:href="#m483b5941fa" x="190.09075" y="160.087969" style="fill-opacity: 0; stroke: #4361ee; stroke-width: 2.6"/>
    </g>
   </g>
   <g id="line2d_28">
    <defs>
     <path id="m9687bf2a39" d="M 0 8 
C 2.121625 8 4.156639 7.15707 5.656854 5.656854 
C 7.15707 4.156639 8 2.121625 8 0 
C 8 -2.121625 7.15707 -4.156639 5.656854 -5.656854 
C 4.156639 -7.15707 2.121625 -8 0 -8 
C -2.121625 -8 -4.156639 -7.15707 -5.656854 -5.656854 
C -7.15707 -4.156639 -8 -2.121625 -8 0 
C -8 2.121625 -7.15707 4.156639 -5.656854 5.656854 
C -4.156639 7.15707 -2.121625 8 0 8 
z
" style="stroke: #2ec4b6; stroke-width: 2.6"/>
    </defs>
    <g>
     <use xlink:href="#m9687bf2a39" x="83.96275" y="193.747969" style="fill-opacity: 0; stroke: #2ec4b6; stroke-width: 2.6"/>
    </g>
   </g>
   <g id="line2d_29">
    <defs>
     <path id="m06ff5714d1" d="M 0 3 
C 0.795609 3 1.55874 2.683901 2.12132 2.12132 
C 2.683901 1.55874 3 0.795609 3 0 
C 3 -0.795609 2.683901 -1.55874 2.12132 -2.12132 
C 1.55874 -2.683901 0.795609 -3 0 -3 
C -0.795609 -3 -1.55874 -2.683901 -2.12132 -2.12132 
C -2.683901 -1.55874 -3 -0.795609 -3 0 
C -3 0.795609 -2.683901 1.55874 -2.12132 2.12132 
C -1.55874 2.683901 -0.795609 3 0 3 
z
" style="stroke: #4361ee"/>
    </defs>
    <g>
     <use xlink:href="#m06ff5714d1" x="190.09075" y="160.087969" style="fill: #4361ee; stroke: #4361ee"/>
    </g>
   </g>
   <g id="line2d_30">
    <defs>
     <path id="m1f215b10ae" d="M 0 3 
C 0.795609 3 1.55874 2.683901 2.12132 2.12132 
C 2.683901 1.55874 3 0.795609 3 0 
C 3 -0.795609 2.683901 -1.55874 2.12132 -2.12132 
C 1.55874 -2.683901 0.795609 -3 0 -3 
C -0.795609 -3 -1.55874 -2.683901 -2.12132 -2.12132 
C -2.683901 -1.55874 -3 -0.795609 -3 0 
C -3 0.795609 -2.683901 1.55874 -2.12132 2.12132 
C -1.55874 2.683901 -0.795609 3 0 3 
z
" style="stroke: #2ec4b6"/>
    </defs>
    <g>
     <use xlink:href="#m1f215b10ae" x="83.96275" y="193.747969" style="fill: #2ec4b6; stroke: #2ec4b6"/>
    </g>
   </g>
  </g>
 </g>
 <defs>
  <clipPath id="p56a644bd86">
   <rect x="30.89875" y="42.277969" width="424.512" height="161.568"/>
  </clipPath>
 </defs>
</svg>
